<svg viewBox="0 0 48 48" fill="none" xmlns="http://www.w3.org/2000/svg">
  <rect x="0.5" y="0.5" width="47" height="47" rx="23.5" fill="white" />
  <g clip-path="url(#clip0_212_511)">
    <path
      d="M24.3067 22.5333C21.28 21.7467 20.3067 20.9333 20.3067 19.6667C20.3067 18.2133 21.6533 17.2 23.9067 17.2C26.28 17.2 27.16 18.3333 27.24 20H30.1867C30.0933 17.7067 28.6933 15.6 25.9067 14.92V12H21.9067V14.88C19.32 15.44 17.24 17.12 17.24 19.6933C17.24 22.7733 19.7867 24.3067 23.5067 25.2C26.84 26 27.5067 27.1733 27.5067 28.4133C27.5067 29.3333 26.8533 30.8 23.9067 30.8C21.16 30.8 20.08 29.5733 19.9333 28H17C17.16 30.92 19.3467 32.56 21.9067 33.1067V36H25.9067V33.1333C28.5067 32.64 30.5733 31.1333 30.5733 28.4C30.5733 24.6133 27.3333 23.32 24.3067 22.5333Z"
      fill="currentColor" />
  </g>
  <rect x="0.5" y="0.5" width="47" height="47" rx="23.5" stroke="currentColor" />
  <defs>
    <clipPath id="clip0_212_511">
      <rect width="32" height="32" fill="white" transform="translate(8 8)" />
    </clipPath>
  </defs>
</svg>