<svg viewBox="0 0 7 24" fill="none" xmlns="http://www.w3.org/2000/svg">
  <g clip-path="url(#clip0_157_3)">
    <path
      d="M4.54515 16.879C4.62115 18.0242 4.80357 20.75 5.00878 24H2.15101C2.36383 20.7258 2.54624 17.9839 2.62224 16.8468C2.63744 16.629 2.53103 16.4274 2.34102 16.3306C1.17816 15.6935 -0.250724 14.129 0.0380923 10.2823L0.684129 0.33871C0.69173 0.153226 1.04135 0 1.04135 0H1.40617C1.68739 0 1.923 0.241935 1.923 0.540323L2.06741 9.02419C2.06741 9.32258 2.13581 9.57258 2.41703 9.57258C2.69824 9.57258 2.83505 9.32258 2.83505 9.02419L2.92626 0.548387C2.92626 0.25 3.16187 0 3.44309 0C3.7319 0.00806452 3.95992 0.241935 3.96752 0.540323L4.10433 9.02419C4.10433 9.33064 4.17273 9.57258 4.46155 9.57258C4.75036 9.57258 4.87197 9.33064 4.87197 9.02419L4.96317 0.548387C4.97077 0.25 5.19879 0.00806452 5.4876 0.00806452H5.82962C6.00443 0.00806452 6.14884 0.153226 6.16404 0.33871L6.87088 10.3629C6.87088 10.3629 6.87088 10.4113 6.87088 10.4274C6.93929 10.8145 7.60813 14.8387 4.83397 16.3387C4.64396 16.4435 4.52235 16.6452 4.53755 16.879H4.54515Z"
      fill="currentColor" />
  </g>
  <defs>
    <clipPath id="clip0_157_3">
      <rect width="7" height="24" fill="white" />
    </clipPath>
  </defs>
</svg>