<svg viewBox="0 0 11 15" fill="none" xmlns="http://www.w3.org/2000/svg">
  <path
    d="M9.49999 5.33332H8.83332V3.99999C8.83332 2.15999 7.33999 0.666656 5.49999 0.666656C3.65999 0.666656 2.16666 2.15999 2.16666 3.99999V5.33332H1.49999C0.766657 5.33332 0.166656 5.93332 0.166656 6.66666V13.3333C0.166656 14.0667 0.766657 14.6667 1.49999 14.6667H9.49999C10.2333 14.6667 10.8333 14.0667 10.8333 13.3333V6.66666C10.8333 5.93332 10.2333 5.33332 9.49999 5.33332ZM5.49999 11.3333C4.76666 11.3333 4.16666 10.7333 4.16666 9.99999C4.16666 9.26666 4.76666 8.66666 5.49999 8.66666C6.23332 8.66666 6.83332 9.26666 6.83332 9.99999C6.83332 10.7333 6.23332 11.3333 5.49999 11.3333ZM7.56666 5.33332H3.43332V3.99999C3.43332 2.85999 4.35999 1.93332 5.49999 1.93332C6.63999 1.93332 7.56666 2.85999 7.56666 3.99999V5.33332Z"
    fill="currentColor" fill-opacity="0.5" />
</svg>