<svg viewBox="0 0 17 20" fill="none" xmlns="http://www.w3.org/2000/svg">
  <g clip-path="url(#clip0_3_739)">
    <path
      d="M16.221 17.4848C14.9476 17.477 13.3717 17.5907 13.3561 17.5907C13.2782 17.5969 13.208 17.6343 13.1582 17.6935C12.3212 18.7167 11.0835 19.3023 9.76177 19.3023H6.0817C6.0817 19.3023 6.09728 19.2883 6.10352 19.282C6.39967 18.9861 6.54463 18.6077 6.51345 18.2183C6.48696 17.896 6.342 17.6001 6.09884 17.3696L6.25159 17.3556C6.67712 17.3166 7.06523 17.1375 7.3458 16.8494C7.60922 16.5815 7.7495 16.2482 7.7495 15.9009C7.7495 15.862 7.74794 15.8215 7.74482 15.7826C7.70118 15.2982 7.38477 14.8949 6.93898 14.6768C7.33645 14.3809 7.57337 13.9262 7.52972 13.4434C7.49387 13.054 7.28657 12.7067 6.94365 12.4653C6.83922 12.3922 6.72544 12.3314 6.60698 12.2847C6.82052 12.0417 6.94677 11.7396 6.94677 11.4094C6.94677 11.1883 6.8891 10.9796 6.78779 10.7927C6.84546 10.813 6.90313 10.8332 6.95924 10.8519C7.19305 10.9313 7.41282 11.0061 7.58428 11.1416C7.74171 11.2662 7.82899 11.5216 7.9116 11.7661C7.94122 11.8549 7.97083 11.9405 8.00201 12.0215C8.19685 12.5152 8.41818 13.0743 8.83747 13.501C9.26455 13.9355 9.86309 14.1831 10.4694 14.1831C10.5333 14.1831 10.5988 14.18 10.6627 14.1754C10.8186 14.1613 10.9324 14.0243 10.9199 13.8686C10.9059 13.7144 10.7687 13.5976 10.6128 13.6131C10.1172 13.6568 9.59032 13.4621 9.23961 13.107C8.90137 12.7613 8.71121 12.28 8.52729 11.8159C8.49923 11.7427 8.47273 11.6648 8.44624 11.5854C8.3418 11.2786 8.22334 10.9282 7.93498 10.6993C7.68715 10.503 7.4097 10.4096 7.14161 10.3193C7.07926 10.2975 7.01847 10.2772 6.95924 10.2554C6.91716 10.2398 6.87663 10.2243 6.8361 10.2087C6.65841 10.1339 6.48072 10.0654 6.29991 9.99533C6.28433 9.9891 6.26718 9.98287 6.25159 9.97664C6.15807 9.94082 6.06299 9.90344 5.96791 9.86606C5.96791 9.86606 4.51677 9.29606 3.86212 9.03753C3.81847 8.42236 3.78106 7.87728 3.75145 7.45522C4.09904 7.5035 4.42013 7.66236 4.75836 7.829C4.94853 7.924 5.14648 8.02211 5.3569 8.10466C6.04117 8.37097 6.71764 8.54696 7.36606 8.62794C7.59675 8.65753 7.81808 8.69958 8.05344 8.74474C8.28725 8.78991 8.52885 8.83507 8.77824 8.86622C8.96684 8.88958 9.157 8.90671 9.34716 8.92384C10.0813 8.99081 10.7734 9.05311 11.3205 9.4845C11.4389 9.57795 11.5543 9.67762 11.6743 9.78197C11.9206 9.99533 12.1746 10.2165 12.4723 10.3878C13.1566 10.7787 13.9515 10.8441 14.653 10.9017L16.048 11.0154C16.2023 11.0263 16.3395 10.9126 16.3519 10.7569C16.3644 10.6012 16.2491 10.4657 16.0932 10.4532L14.6982 10.3395C14.056 10.2866 13.3281 10.2274 12.7529 9.89877C12.5035 9.75393 12.2806 9.56082 12.0453 9.3568C11.9237 9.25245 11.8005 9.14344 11.6696 9.04065C10.99 8.50646 10.1811 8.43327 9.3986 8.36318C9.21467 8.34605 9.03075 8.33048 8.84838 8.30712C8.61769 8.27753 8.3948 8.23548 8.161 8.19031C7.92719 8.14515 7.68403 8.09998 7.4362 8.06884C6.83455 7.99408 6.20327 7.829 5.56109 7.57826C5.37561 7.50662 5.19792 7.41785 5.00931 7.3244C4.61652 7.12973 4.21126 6.92883 3.72963 6.88366C3.72339 6.88366 3.71716 6.88211 3.71092 6.88211C3.71092 6.84629 3.70625 6.81358 3.70469 6.78399C3.69689 6.6921 3.75145 6.61112 3.8325 6.56907C5.01555 5.9648 4.73031 4.34823 4.70069 4.19249C4.69913 4.18315 4.69758 4.17536 4.69758 4.16602L4.39519 0.135493C4.39051 0.0591808 4.32817 0 4.25179 0H4.10527C3.98525 0 3.8855 0.0981156 3.88394 0.219592L3.84497 3.62716C3.84497 3.74864 3.79042 3.84831 3.66728 3.84831C3.54414 3.84831 3.51764 3.74864 3.51764 3.62716L3.45685 0.218035C3.45374 0.0965582 3.35554 0 3.23552 0C3.1155 0 3.01574 0.0981156 3.01419 0.218035L2.97522 3.62716C2.97522 3.74864 2.91911 3.84831 2.79753 3.84831C2.67595 3.84831 2.64633 3.74864 2.64633 3.62716L2.58554 0.216477C2.58399 0.0965582 2.48579 0 2.36421 0H2.20834C2.20834 0 2.05871 0.0591808 2.05559 0.135493L1.78126 4.13331C1.65656 5.68136 2.26757 6.30899 2.76479 6.5644C2.84429 6.60489 2.89105 6.68587 2.88481 6.77309C2.88014 6.84784 2.87234 6.93973 2.86611 7.04719C2.7305 7.13907 2.61204 7.26678 2.51852 7.42252C2.26601 7.84613 2.25354 8.25261 2.48267 8.66687C2.54969 8.78835 2.63075 8.90048 2.72583 9.00327C2.70556 9.31008 2.68218 9.63713 2.6588 9.97352V9.97975H2.2286C2.12885 9.97975 2.03065 9.98754 1.93557 10.0047C1.17493 10.1246 0.59665 10.7086 0.59665 11.4094C0.59665 11.9452 0.934887 12.414 1.43367 12.6585C0.838248 12.917 0.448574 13.4777 0.504687 14.0866C0.548331 14.5709 0.864746 14.9743 1.31053 15.1923C1.24195 15.2422 1.17648 15.2982 1.11725 15.359C0.82422 15.6596 0.683937 16.038 0.719787 16.4273C0.754079 16.8167 0.962944 17.164 1.30586 17.4038C1.30742 17.4038 1.30742 17.4054 1.30897 17.4054C0.849159 17.6935 0.563918 18.1779 0.606003 18.6996C0.638735 19.0889 0.842924 19.4393 1.18272 19.6838C1.46952 19.8894 1.8249 20 2.19587 20C2.24575 20 2.29719 19.9969 2.34862 19.9938L3.91511 19.8661H9.76177C11.2129 19.8661 12.5737 19.24 13.5151 18.1451C13.9032 18.1187 15.1642 18.0424 16.2163 18.0486H16.2179C16.3738 18.0486 16.5 17.924 16.5 17.7683C16.5 17.6125 16.3769 17.4864 16.221 17.4848ZM4.70069 9.97352C4.70069 9.97352 4.71004 9.97664 4.71628 9.97975H3.92602C3.92602 9.97975 3.92602 9.97508 3.92602 9.97352C3.91979 9.86762 3.91199 9.76328 3.90576 9.66049C4.14268 9.75393 4.42636 9.86606 4.70069 9.97352ZM1.1609 11.4094C1.1609 11.0637 1.41341 10.7631 1.77814 10.6261C1.86543 10.5903 1.96051 10.5669 2.06026 10.5544C2.11482 10.5466 2.17093 10.5435 2.2286 10.5435H2.34239V10.5373H3.96655V10.5435H5.31482C5.90401 10.5435 6.38252 10.9329 6.38252 11.4094C6.38252 11.7318 6.16431 12.0137 5.84166 12.1632C5.81984 12.1632 5.79646 12.1648 5.77463 12.1679L4.58379 12.2769H2.2286C2.17093 12.2769 2.11482 12.2738 2.06026 12.266C1.96051 12.2535 1.86543 12.2286 1.77814 12.1944C1.41341 12.0573 1.1609 11.7567 1.1609 11.4094ZM1.06582 14.0352C1.02997 13.6365 1.33391 13.269 1.77814 13.1304C1.86387 13.1023 1.95427 13.0836 2.04935 13.0758H2.06026L2.34239 13.0494L2.44526 13.04L4.12865 12.8843C4.12709 12.8703 4.12553 12.8563 4.12553 12.8407H4.60717L5.82607 12.7285C5.8666 12.7254 5.90712 12.7239 5.94765 12.7239H5.96012C6.20327 12.727 6.4324 12.7955 6.61789 12.9263C6.82364 13.0712 6.94677 13.2721 6.96704 13.4948C7.01068 13.9698 6.56957 14.4012 5.98506 14.4541L4.244 14.6145L2.34239 14.789H2.32524L2.20834 14.8014C2.15846 14.8061 2.10858 14.8077 2.06026 14.8045C1.96207 14.803 1.86699 14.7905 1.77814 14.7672C1.39003 14.6691 1.09855 14.3887 1.06582 14.0352ZM1.28092 16.376C1.26065 16.1532 1.34638 15.9321 1.52096 15.753C1.59577 15.6767 1.68306 15.6113 1.77814 15.5599C1.86543 15.5116 1.96051 15.4758 2.06026 15.4509C2.12729 15.4337 2.19431 15.4213 2.26445 15.415H2.28472L2.34239 15.4073L4.28608 15.2297L6.04117 15.0693C6.0817 15.0646 6.12066 15.0631 6.16119 15.0631C6.42773 15.0631 6.674 15.1456 6.85637 15.2827C7.04029 15.4197 7.16187 15.6128 7.18213 15.834C7.2024 16.0551 7.11823 16.2763 6.9421 16.4554C6.75505 16.6469 6.49163 16.7684 6.1986 16.7949L4.77083 16.9257H4.7646L4.72251 16.9304L4.36557 16.9631L2.42344 17.1406C2.39694 17.1422 2.36889 17.1453 2.34239 17.1453C2.30966 17.1469 2.27692 17.1469 2.24419 17.1453C2.22081 17.1453 2.19587 17.1422 2.17249 17.1375H2.1647C2.12885 17.136 2.09456 17.1297 2.06026 17.1219C1.96051 17.1033 1.86543 17.0721 1.77814 17.0285C1.7267 17.0051 1.67683 16.9755 1.63006 16.9428C1.42588 16.7996 1.30118 16.5971 1.28092 16.376ZM5.70449 18.8849C5.51589 19.0734 5.25091 19.1917 4.95788 19.2151L3.88861 19.3023L2.30342 19.4316C2.22081 19.4378 2.13976 19.4378 2.06026 19.4284C1.96207 19.4191 1.86699 19.3973 1.77814 19.3646C1.68306 19.3303 1.59266 19.2836 1.51316 19.226C1.30897 19.0796 1.1874 18.8771 1.16869 18.6544C1.13908 18.29 1.39314 17.9536 1.77814 17.7963C1.86543 17.7589 1.96051 17.7324 2.06026 17.7169C2.093 17.7106 2.12417 17.7075 2.1569 17.7044H2.16158C2.20834 17.7091 2.2551 17.7106 2.30186 17.7106H2.34239C2.38603 17.7091 2.43123 17.706 2.47488 17.7029L4.20035 17.544C4.20035 17.544 4.20191 17.5409 4.20191 17.5378L4.78019 17.491L4.81604 17.4879C4.85345 17.4848 4.8893 17.4833 4.92515 17.4833C5.17765 17.4833 5.41613 17.5565 5.60785 17.6935C5.81048 17.8399 5.93206 18.0424 5.95077 18.2651C5.96947 18.4862 5.88218 18.7074 5.70449 18.8849Z"
      fill="currentColor" />
  </g>
  <defs>
    <clipPath id="clip0_3_739">
      <rect width="16" height="20" fill="white" transform="translate(0.5)" />
    </clipPath>
  </defs>
</svg>